<svg xmlns:xlink="http://www.w3.org/1999/xlink" width="7.832ex" height="2.009ex" style="vertical-align: -0.671ex;" viewBox="0 -576.1 3372.1 865.1" role="img" focusable="false" xmlns="http://www.w3.org/2000/svg" aria-labelledby="MathJax-SVG-1-Title">
<title id="MathJax-SVG-1-Title">n Subscript u Baseline times n Subscript v</title>
<defs aria-hidden="true">
<path stroke-width="1" id="E1-LATINMODERNNORMAL-1D45B" d="M571 143c0 -8 -37 -154 -131 -154c-47 0 -82 35 -82 82c0 11 1 23 10 46c16 43 65 171 65 233c0 33 -9 70 -54 70c-95 0 -148 -91 -163 -122l-13 -50c-5 -23 -11 -45 -17 -67l-22 -90c-6 -25 -18 -72 -19 -74c-7 -20 -25 -28 -37 -28c-15 0 -29 9 -29 27c0 5 6 28 9 43 l58 231c13 52 16 63 16 84c0 33 -11 46 -31 46c-36 0 -56 -48 -73 -119c-6 -22 -7 -23 -17 -23c0 0 -12 0 -12 10c0 4 14 63 30 97c10 18 29 57 75 57s87 -31 92 -87c17 23 66 87 156 87c72 0 115 -40 115 -107c0 -57 -42 -167 -61 -220c-9 -22 -18 -46 -18 -71 c0 -23 7 -33 24 -33c49 0 82 56 102 124c5 15 5 18 15 18c3 0 12 0 12 -10Z"></path>
<path stroke-width="1" id="E1-LATINMODERNNORMAL-1D462" d="M543 143c0 0 -13 -63 -30 -99c-16 -32 -39 -55 -74 -55c-43 0 -78 26 -89 67c-17 -22 -53 -67 -119 -67c-54 0 -123 25 -123 120c0 49 21 111 58 210c6 15 17 44 17 68c0 32 -16 33 -25 33c-38 0 -76 -37 -101 -124c-5 -16 -6 -18 -16 -18c0 0 -12 0 -12 10 c0 9 37 154 132 154c50 0 82 -37 82 -82c0 -19 -5 -33 -17 -63c-26 -69 -54 -148 -54 -204c0 -37 10 -82 62 -82c73 0 113 80 114 84l75 301c8 34 34 35 39 35c15 0 29 -9 29 -27c0 -6 -10 -44 -15 -67c-4 -15 -14 -53 -17 -68l-28 -108c-8 -35 -20 -82 -20 -104 c0 -33 10 -46 31 -46c42 0 61 68 75 124c3 14 4 18 14 18c3 0 12 0 12 -10Z"></path>
<path stroke-width="1" id="E1-LATINMODERNMAIN-D7" d="M624 15c-7 -8 -20 -8 -28 0l-207 207l-207 -207c-8 -8 -21 -8 -28 0c-8 7 -8 20 0 28l207 207l-207 207c-8 8 -8 21 0 28c7 8 20 8 28 0l207 -207l207 207c8 8 21 8 28 0c8 -7 8 -20 0 -28l-207 -207l207 -207c8 -8 8 -21 0 -28Z"></path>
<path stroke-width="1" id="E1-LATINMODERNNORMAL-1D463" d="M468 372c0 -52 -57 -383 -225 -383c-46 0 -134 16 -134 124c0 43 13 89 57 205c7 18 17 45 17 70c0 32 -17 32 -25 32c-29 0 -72 -23 -101 -124c-5 -16 -6 -18 -16 -18c0 0 -12 0 -12 10c0 9 38 154 132 154c50 0 82 -37 82 -82c0 -19 -5 -33 -12 -50 c-31 -83 -58 -156 -58 -212c0 -52 23 -87 74 -87c117 0 178 229 178 271c0 36 -13 62 -34 82c-11 11 -16 17 -16 30c0 22 24 48 49 48c18 0 44 -16 44 -70Z"></path>
</defs>
<g stroke="currentColor" fill="currentColor" stroke-width="0" transform="matrix(1 0 0 -1 0 0)" aria-hidden="true">
 <use xlink:href="#E1-LATINMODERNNORMAL-1D45B" x="0" y="0"></use>
 <use transform="scale(0.707)" xlink:href="#E1-LATINMODERNNORMAL-1D462" x="849" y="-213"></use>
 <use xlink:href="#E1-LATINMODERNMAIN-D7" x="1327" y="0"></use>
<g transform="translate(2328,0)">
 <use xlink:href="#E1-LATINMODERNNORMAL-1D45B" x="0" y="0"></use>
 <use transform="scale(0.707)" xlink:href="#E1-LATINMODERNNORMAL-1D463" x="849" y="-213"></use>
</g>
</g>
</svg>