<svg xmlns:xlink="http://www.w3.org/1999/xlink" width="2.382ex" height="2.009ex" style="vertical-align: -0.671ex;" viewBox="0 -576.1 1025.4 865.1" role="img" focusable="false" xmlns="http://www.w3.org/2000/svg" aria-labelledby="MathJax-SVG-1-Title">
<title id="MathJax-SVG-1-Title">sigma Subscript normal a</title>
<defs aria-hidden="true">
<path stroke-width="1" id="E1-LATINMODERNNORMAL-1D70E" d="M567 407c0 -34 -36 -34 -49 -34h-110c31 -44 31 -92 31 -109c0 -154 -133 -275 -251 -275c-91 0 -150 70 -150 158c0 119 111 284 262 284h228c18 0 39 0 39 -24zM375 276c0 31 -8 97 -92 97c-34 0 -94 -14 -136 -83c-35 -59 -47 -141 -47 -171c0 -72 40 -108 89 -108 c39 0 93 26 132 85c34 51 54 133 54 180Z"></path>
<path stroke-width="1" id="E1-LATINMODERNMAIN-61" d="M483 89c0 -81 -61 -95 -82 -95c-47 0 -74 42 -78 82c-19 -47 -65 -87 -131 -87c-63 0 -160 25 -160 106c0 44 25 96 100 130c63 30 133 33 184 36v37c0 89 -57 128 -106 128c-32 0 -81 -11 -108 -46c46 -1 51 -34 51 -46c0 -26 -18 -46 -46 -46c-26 0 -46 17 -46 47 c0 66 69 113 151 113c48 0 98 -16 137 -55c36 -37 36 -76 36 -118v-200c0 -5 4 -50 37 -50c11 0 36 6 36 64v56h25v-56zM316 140v100c-165 -6 -207 -89 -207 -144c0 -50 41 -85 90 -85c45 0 117 34 117 129Z"></path>
</defs>
<g stroke="currentColor" fill="currentColor" stroke-width="0" transform="matrix(1 0 0 -1 0 0)" aria-hidden="true">
 <use xlink:href="#E1-LATINMODERNNORMAL-1D70E" x="0" y="0"></use>
 <use transform="scale(0.707)" xlink:href="#E1-LATINMODERNMAIN-61" x="808" y="-213"></use>
</g>
</svg>